<svg viewBox="0 0 500 500" xmlns="http://www.w3.org/2000/svg" xmlns:xlink="http://www.w3.org/1999/xlink"><clipPath id="a"><path d="m0 212.8h500v301.1h-500z"/></clipPath><clipPath id="b"><path d="m0 0h500v500h-500z"/></clipPath><clipPath id="c"><path d="m330.6 259.4c13.7-1.1 13-12.3 13-12.3 9 .5 24.1 55.8-9.2 58.4-38.9 3.1-27-54.3-18.8-54.7-.1 0 1.3 9.6 15 8.6z"/></clipPath><path clip-path="url(#a)" d="m-597.7 515.1c1.8 0 41.7-.6 43.4-1.7 5.2.9 10.5 1 15.7 0 1.9 1.2 4 .6 6 .6h386.9c1.9 0 3.7-.2 5.6-.3h7.9c1.9.1 3.7.4 5.6.4h390.2c1.7 0 3.4.3 4.9-.6 1.9.2 3.7.5 5.6.5l274.8.2c4.2 0 5.3-1.1 5.2-5.2-.3-10.5-.1-20.9-.1-31.4 0-1.4.7-3.8-.8-4-4.1-.5-2.7-3.4-2.7-5.5l-.1-38.7c0-1.6 1.1-4.1-2-4.2-4.9-.2-6.2-4.4-7.5-7.6-1.8-4.2-3.9-4.3-7.2-2.5-2.5-1.2-1.1-3.5-1.4-5.3-.4-2.4 1-5-.7-7.4-.7-22.7-23.1-39-43-31.2-14.6 5.7-23.1 16-23.4 32.1-.1 4.1 0 8.2 0 12.4-6.3-2.8-6.9-2.5-9.7 3.7-1 2.2-2.4 5.1-4.5 5.2-6.1.2-4.9 4.2-4.9 7.8l-.1 10.6h-4.3l.1-54.9c.5-1.7.6-3.4 1.8-5 2-2.8 1.3-4.8-2.4-5-.1 0-.3.1-.4.1v-6.9c-.1-.4-.2-.8-.4-1.2v-26.5c.1 0 .1-.1.2-.1 1.3-1 1.3-2.7 2.1-3.9.9-1.3 3.3-1.1 3-3.5s-2.5-2.1-3.9-2.5c-5.6-1.6-7.2-5.6-6.9-10.8.2-3.2-.7-6.4-2.7-8.3-5.4-5.3-8.3-11.7-10.3-20.3-1.9 8.2-4 14.6-9.4 19.5-2 1.8-3.7 4.9-3.4 8 .6 6.6-2 10.8-8.5 12.5-1.1.3-2.4.4-2.6 1.8-.2 1.6.9 2.3 2.2 2.8 2.3.8 3.5 2.2 3.4 4.9-.2 8.4-.2 16.8 0 25.2 0 2.6-.7 3.5-3.4 3.6-11.3.4-20.5-5-29.4-10.7-3-1.9-4.8-5.2-3.2-9.1.7-1.8 0-2.8-1.3-3.8-.1-1.9 2.3-3.7 0-5.6-.1-1.3.4-2.7-.7-3.9-1.8 1-1.4 2.6-1.5 4-1.7 1.9 0 3.7.1 5.6-.9 1-1.6 2.1-1 3.5 1.7 4.5-1 7.5-4 10.1-1.5 1.3-3.6 1.8-5.3 2.8-7.6 4.2-15.3 7.9-24.4 7.2-2.6-.2-2.4-1.6-2.4-3.3v-25.8c0-1.4-.2-2.9 1.6-3.8 1.5-.8 4.1-.9 3.7-3.5-.5-2.6-3.2-2.3-5-2.8-4.5-1.3-5.9-5.6-5.9-8.5-.1-5.1-1.1-9.2-4.6-12.6-3.8-3.7-5.9-8.1-6.8-13.1-.1-.7-.3-1.5-.6-2.1-.2-.5-.1-1.5-1.2-1.2-1.8 6.4-3.3 12.9-8.8 17.6-2.3 1.9-4.1 5.3-3.7 8.5.9 6.9-1.7 10.9-8.3 12.4-1.1.2-2.3.4-2.5 1.8-.2 1.6.7 2.4 2.1 2.9 3.2.9 3.3 3.4 3.2 6.1l-.1 26.9c-.1 2.7 2.5 7.1-3.1 7.8-.2 0-.5 1.5-.2 1.9 4.3 6.3 1.3 13.4 2 20.1-1.9 2.4-1.5 5.3-1.5 8.1v56.1c0 5.3-1.4 6.6-5.7 5.6-7.9-1.8-16-12.4-15.6-20.6.2-4.6 2.4-7.3 7-8 1.3-.2 2.6-.2 3.9-.6 3.1-1.1 3.6-3.8 1.2-6-1.4-1.3-3.3-2-5.2-1.7-3.7.5-7-.9-10.5-1.4-3.8-.6-5.4-2.6-5.9-6.3s-.8-7.5-3.4-10.5c-4.7-30.1-6.7-60.5-7-91 0-2.9 0-5.6 2.1-8.4 1.9-2.5 2.5-6.5-1.2-8.8-2-1.3-2.1-2.9-2-4.8.3-5.7-.7-11.5 1.2-17.2.6-1.7 1.5-4.6-.8-5.6-3.1-1.3-2.7-3.6-2.7-6 0-6.6.7-13.3-2.5-19.5-1-1.9-.6-5-3.7-4.8-2.7.2-2.9 3.1-3.7 5.1-2.8 6.3-2.1 13-2.2 19.7 0 1.4.8 3.4-.7 4.1-5.1 2.3-2.3 5.9-2.3 9.4.1 6.9 3.9 14.4-2.6 20.8-1.6 1.6-1.6 5.3.1 7.4 2.6 3.3 2.3 7 2.2 10.7-1.1 30.1-2.1 60.1-7.1 89.9-3.6 5.1-3.6 11.2-4.5 16.3-6.3-.7-12.6 1.9-18.9 1.2-2.7 2-3 5.8-.3 6.2 8 1.3 10.4 7.2 13.2 13-.2 0-.3 0-.5.1-1.9.8-2.5 2.6-3.2 4.3-2.2 5.4-6.5 9-11.2 11.9-4.2 2.5-7.6.6-7.7-4.3-.1-11.5.1-23-.4-34.6a7.27 7.27 0 0 0 -1.4-3.1c-.2-.3-.5-.5-.7-.8 2.5-3.6.3-7.8.5-11.6.4-6.6-1.6-13.2.3-19.8.1-1.7 1.6-2.4 2.6-3.5s1.7-2.7.1-3.2c-6.6-2.4-3.9-7.9-3.4-11.7.8-6.9-.9-12.2-6.5-15.9-2.1-1.4-2.6-3.2-3.4-5.4-1 2 .1 4.7-2.8 5.3-1.7.4-2.6 1.8-3.5 3.1.1-.2.4-.4.7-.4-.2.1-.4.3-.7.4-2.3 3.5-4 7.1-3.4 11.4 2.6 3.5 1.9 7.7.8 11-1.8 5.4-2.4 5.5-1.3 9.3.4 1.4.3 2.9.4 4.4.2 3.2-.5 6.5.9 9.5-1.8.7-1.7 2.6-2.5 4-1.8 2.9-4.7 2.2-7 1.5-3.3-1.1-.4-3 .1-4.3.8-2 .5-3.6-.7-5.2-1.7-2.3-2.3-5.1-1.4-7.4 1.4-3.7-.3-6.5-1.6-9.5-1.5-3.4-4.2-6.3-7.8-6.5-3.8-.2-5.9 3.3-7.8 6.4-4 6.4.3 14.4-4.1 20.7-.1.2.1.7.3 1 3.9 5.4-.2 5-3.6 5.2-1.5.1-3 0-4.5 0-5.8.2-5.8.1-5-5.7 1.9-13.8-4.8-26.7-16-30.7-2.7-.2-3.5-3-5.3-3.9-8.4-4.2-9.6-12.2-11.4-19.9-.5-.4-1-.4-1.4 0-1.3 2.1-1.4 4.6-2.6 6.7 0 4.7-2.9 7.6-6.1 10.6-4.1 4.1-9.4 6.3-13.7 10.1-6.1 5.6-9.2 12.4-9.1 20.8.1 13.3-.1 13.3-13.7 12-.7-.1.2-.2-.5-.1-4.2.4-5.2-1.5-5.3-5.5-.4-13.7 1.6-27.4.7-41.1-2.3-5.6-2.7-5.8-7.8-3.9-1.4 1-1.9 0-2.6-1-6.7-11.2-17.3-16.9-26.6-24.2-1.7-.2-3.6-.2-1.8-2.7 1.7-2.3.8-4-1.4-5.3l-.3-4.9c-.3 0-.2 0-.6-.1l-1.2 5.1c-1.8 1.1-2.9 2.5-1.5 4.5.8 1.2 1.2 1.8-.2 3-6 5.3-11.4 11.2-18.7 14.8-4.3 1.2-7 4-8.9 7.9-1 2.1-1.5 4.1-4.6 1.5-3-2.5-5.8-.4-6.3 2.6-.7 4.1-1.9 8.4-1 12.7 2.4 10.7.9 21.5 1.3 32.3.1 2.3-.9 3.4-3.8 3.1a49.2 49.2 0 0 0 -9.4 0c-5 .6-7.2.4-6.5-3.8.4-2.4.1-4.8.2-7.3.3-10.8-4.4-18.9-13.3-25-7.1-4.9-15.2-9.1-16.4-19.1-.1-1-.9-2-1.8-2.8-.2-.1-.3-.1-.5-.1-.2-3.4 2-7.3-2-9.9v10.7c-.3.3-.6.7-.9 1-3.2 2.7-.9 7.6-4.6 10.4-4 3-7.3 6.9-11.7 9.4-10.8 6.2-14.6 16-14.4 27.8.2 9.2.4 9.2-8.9 9.1-.7 0-1.5-.2-2.2-.2-3.3.1-4.9-.7-2.6-4.1 1-1.4 1.9-2.9.4-4.5-4.3-1.7-3.9-5.5-3.5-8.9.8-6.8-.9-11-6.7-14.6 0-1 .1-2.6-1.1-2.5-1.3 0-.7 1.6-.8 2.5-6 2.8-8.5 10.6-7 14.4-.7 5.2-5.8 9.7-2.6 15.7.7 1.3-.5 1.8-1.8 2.1-4.1.8-6.1-.8-6.4-5.2-.3-4.2 1-8.6-1.2-12.6-.1-.6-.4-1.3-.1-1.6 2-3.4 7-6.7-.5-9.7-.6-.2-.1-2.8-.3-4.3-.5-4.5 2.1-8.9-.1-13.6-2.4-5.1-6.9-9.5-10.1-8.5-4.1 1.3-11.7 11.9-9.7 14.6 3 4.1.9 8 1.5 12-3.3.4-6.3 1.6-4.7 5.6 3.4 8.3 2.2 16.8 2.2 25.3.1 10.2-.6 20.4.4 30.7.3 2.1.1 4.3 1.7 6-2.4.8-1.9 3-2.1 4.9-.3 2.4-.1 4.8-.1 7.2 0 2.9-.6 5.3-4.3 5.1-3.5-.2-3.6-2.7-3.6-5.2v-23.4c.3-1.9-.6-3.4-1.6-4.9 2.4-1.6 1.6-4.5 1.7-6.9l.1-44.6c0-2.6.1-5.3-1.8-7.4-.5-3.1-.2-6.2-3.3-8.8-4.6-3.9-4.3-9.7-3.4-15.1.4-2.2 1.1-3.8-1-5.2-2.3-1.5-4.6-1.3-6.9-.1-2.4 1.2-1.2 3.2-1.3 5.2-.2 4.1 1.9 8.5-1.2 12.2-2.9 3.5-6.2 6.7-5.5 11.8-1.4 1.5-1.6 3.3-1.6 5.2l-.1 21.2c-.3-6-.1-12 0-18 .1-3.7-.7-6.5-3.8-8.5-2.4-.7-3.6-2-3.1-4.7.4-2.6.1-5.3.7-7.8.3-1.2-.2-2.6-1.4-3.1-1.7-.8-3.5-1.3-5.3-.1-1.5 1-2 1.9-1.4 4 1.7 6 .5 11.5-5.2 15.2.1 4.7-1 9.5.7 14.1-.2 0-.4.1-.6.2-2.1 1.9-1.6 4.4-1.7 6.8-.1 4.5.1 8.9-.1 13.4-.1 1.7-.1 3.5-2.3 3.9-2.5.5-3-1.3-3.7-3.2-1.6-4.7-4.4-10.2-8.3-11.3-6.9-1.9-11.7-5.9-17-10-2.7-2-5.4-3.6-7-6.7-.9-1.7-2-3.1-3.9-3.9-4.6-4.9-9.5-9.8-16.3-11.3-7.1-1.5-9.6-5.7-9.4-12.3 0-.7-.1-1.5-.2-2.2.3-2 .4-3.9-1.6-5.3-.9 1.4-.5 2.8-.3 4.2-.2 1.9-.7 3.7-.6 5.5.4 6-3 8.2-8.1 9.6-9.8 2.9-16.7 9.4-21.2 18.5-1.2 2.5-2 4.7-5.8 4.5-2.9-.1-5.4 2.6-6 5.8-.5 2.4-1 3.5-3.9 2.9-5.3-1-9.8.1-11 6.4-.4 1.9-1.7 1.7-3 1.8-2.8-.2-2.3-2.3-2.3-4l-.1-22.6c0-1.6 1.1-3.7-1.2-4.9l.1-.2c-.6-.7-1.2-1.6-2.3-1.7-.1-.8-.2-1.7-.4-2.5-.6-.8-1.3-1.5-2.3-1.7-.2 0-.4.1-.6.1v-8.7c1.2-.9 1.1-2.1 1.1-3.4-2.4-2.3-5.1-2.1-8-1-.4.8-.8 1.4-1.2 2.2.1.6.3 1.2.4 1.8.1 0 .2.1.4.2-.2.2-.4.5-.5.8-.4 3.4-.6 6.9-1.1 10.3-.4 0-.9 0-1.3.2-.1 0-.2.2-.2.5-.1.3 0 .6.3.8.2.8-.3 1.2-.8 1.7-.5 0-1 .1-1.6.4-.4.5-.8 1-1 1.6-1.1 7.2-.4 14.5-.5 21.8-.5 4.8 1.1 9.9-1.9 14.6-2.3-5.9-1.2-12.2-1.6-18.2-.2-9.4.3-18.8-.3-28.2-.2-.9-.6-1.8-1.2-2.5-1.6-1.8-3.1-3.9-5.7-4.6-1.8-4-1.1-8.3-.4-12.3.4-2.1.5-3.6-1.5-4.7-2.1-1.1-4.4-1.2-6.4.1-1.7 1.1-1.6 2.5-1.4 4.7.5 4.7 2.8 9.6-2.3 14-2 1.7-5.4 5.1-3.8 9.3-1.9 2.6-1.5 5.7-1.5 8.7l-.1 77.4c0 2.2.7 4.8-2.4 7.3-1-7.6-3.7-14-2.8-21.4 1.4-11.3 1.6-22.7-.2-34-.5-.7-1.1-1-1.6-1.1 2.4-1.2 2.4-3.6 2.6-5.8.2-3.4.3-6.8.1-10.2-.5-8.8 1.4-17.8-1.6-26.4l-.1-10.1c.1-4.6-1.1-9.3 3.5-13.2 2.1-1.7 2.3-6.3-2.6-6.8-3.1-.4-3.9-1.5-2.8-4.3.6-1.4-6.1-13.1-7.6-13.3-.2 0-.7.2-.7.4-1.9 5-9.6 6.9-7.3 14 .5 1.6-.1 2.6-2 3.2-5.2 1.7-5.8 4.4-2 8.6 1.6 1.7 3 3.3 2.3 5.9-1.2 6.4-.2 12.9-1.2 19.4-.9 6.1-.6 12.5.1 18.7-2.7-4.6-2.7-4.7-12.2-10-4.8-2.2-2.5-7.1-4-10.9-2.5 11.5-4.3 13.9-13 17.1.2-4.8 3.2-9.9-1.4-14.4-3.2 4.5-2 8.9-1 13.4.3 1.4 1.2 4.3-2.2 3.7-1.8-.3-5.6 1.2-5.1-2.2 1.1-7.1-3.6-10-8.1-13.2-1.7-1.2-3.4-2.5-5.1-3.8-4.3-3.5-4.2-8.5-5.9-13.2.2 5.4-1.4 9.5-5.2 13.2-1.5 1.5-3.1 2.6-4.7 3.7-5 3.2-9.8 6.5-8.4 13.6.4 2.1-.9 2-2.2 2.1s-2.8.3-2.5-1.8c.1-1.5.3-2.9.5-4.4.5-3.7 1.7-7.6-1.8-11-4 4.7-1.5 9.7-.8 15-6.9-3.3-12.2-7.2-13-15.2-.6 5.5-3.3 10.1-12.6 15.4a103.99 103.99 0 0 1 -4.5-2.6l-.2-28.1c0-4.2-1.2-8.6 3.3-11.6 1.5-1 1.5-4.3.9-4.6-5.3-2.3-4.8-7.5-6.8-11.5-1.7-3.5-4.5-6.9-7.2-10-1.7 6.3-10.5 9.4-7.8 17.6.1.2-1.1.8-1.7 1.1-5 2.2-5.7 4.9-2 8.8 1.4 1.5 2.6 2.8 2.5 5.2l-.3 36.4c-1.3 2.6-1.5 5.4-1.4 8.2.2 6.7.5 13.5 0 20.2-1.4 15.9 3.4 32.1-2 47.8v.8c-.6-.3-1.1-.4-1.3.4-.3 1.3.9 1.6 2 2 .2.3.4.6.7.8-4.4-.2-4.2-4.5-5.7-7.4 2.5-1.5 1.9-4.4 1.9-6.7.1-6.3 0-12.6-.1-19-.1-5.4-.2-10.7 3.2-15.4-2.8-3.7-2.6-7.6-.8-11.5 1.1-2.5.5-4.3-2.2-4.4m365.4 4.9c.6-.2 1-.4 1.2-.8 0 .8.1 1.5.1 2.3.1.6.4 1.1.6 1.5-.7.5-1.1 1-1.3 1.6-.2-1.5.1-3.1-.6-4.5.1 0 0-.1 0-.1z" fill="#d1d3d4"/><g clip-path="url(#b)"><g fill="#24324c"><path d="m277.3 586.2c-1.6 0-3.1-.8-4-2.2-1.3-2.2-.7-5.1 1.6-6.4l30.5-19-3.8-92.5c-.1-2.6 1.9-4.8 4.5-4.9 2.7-.1 4.8 1.9 4.9 4.5l4 98-35.2 21.9c-.8.4-1.7.6-2.5.6zm92.4 32.9c-1.3 0-2.8-.6-3.6-1.8-1.7-2.1-1.2-5 .7-6.6l23.9-19v-187.5c0-2.6 2.1-4.7 4.7-4.7s4.7 2.1 4.7 4.7v192l-27.4 21.8c-.9.7-1.9 1.1-3 1.1zm-277-432.5c-.9 0-1.9.3-2.7.8-2.2 1.5-2.7 4.5-1.1 6.5 15.6 22.3 34.4 20.4 42.3 18.4 87.2 116.8 207.7 33.8 208.8 33 2.1-1.5 2.6-4.5 1.1-6.5-1.5-2.1-4.5-2.6-6.5-1.1-.3.2-29.5 20.5-68.4 26.3-51.6 7.8-95.1-12.4-129.5-60l-2.3-3.1-3.5 1.7c-.7.3-19 8.2-34.4-13.9-.8-1.4-2.4-2.1-3.8-2.1z"/><path d="m102 168.3c-.6 0-1.3.1-2 .4-2.4 1.1-3.4 3.9-2.3 6.2.5 1.2 13.9 29.6 34 36.9l7.4 2.7-5.9-40.7c-.4-2.6-2.8-4.4-5.3-3.9-2.6.4-4.4 2.8-3.9 5.3l3.4 23.3c-10.3-7.8-18.4-21.9-21.1-27.7-.9-1.4-2.5-2.5-4.3-2.5z"/></g><g fill="#f28029"><path d="m257.9 201.6c6.2-26.3 20.2-47.2 46.2-58.2 14.8-6.2 30.5-7.7 46.4-7.1 37.2 1.5 64 21.4 75.8 56.4 7 20.5 8.8 41.7 7.4 63.1-3.9 58.8-20.6 114.2-47.2 166.7-8.1 16.1-17.1 31.6-30.8 44-8.5 7.7-15.9 8.1-24.2.3-6.1-5.7-11.9-12.1-16.4-19.2-38.6-61.7-58.6-129.3-63-205.6 1.7-11 2.5-26 5.8-40.4zm107.2-3c-19.1-12.3-42.4-7.2-55.6 11.8-13 18.7-10.9 45.9 4.9 62.1 10.8 11.1 24.4 14.8 39.1 11.1 16.4-4.3 26.1-16.1 30.5-32.2 1.1-4.3 1.3-8.7 1.7-11.4-.5-18.4-6.4-32.3-20.6-41.4zm-23.9-78.3c-11.3-12.7-21.4-24.9-32.7-36-11.1-10.9-23.4-20.6-35.9-31.5 14.9 7.5 28.1 16.1 39.1 27.4 11 11.2 21.1 23.3 32.4 36 14.7-20.3 31.5-38.9 54.9-50.4-20 15.6-37.8 33.3-52.9 53.5l.6 2.5c7.4.4 14.7 1.7 22 1.1 24.5-1.6 44.6-12.7 61.5-29.8 15.8-15.9 27.1-34.4 32.7-56.3 1-3.9 1.1-7.3-4.3-7.4-42.8-.8-78.7 13.4-104.1 49.3-2.7 3.7-4.6 8.1-6.4 12.3-1.8 4-2.9 8.3-4.8 14-3.9-17.8-11-32.7-22.3-45.3-25.1-28.3-57.4-42.4-94.5-46.3-6.5-.7-13.3 0-19.9-.3-6.7-.3-7.1 3-5.6 8.4 6 22.8 17.2 42.7 32.7 60.3 18.6 21.1 41 35.8 69.1 41 12.6 2.5 28.1 1.8 38.4-2.5z"/><circle cx="340.8" cy="242.1" r="54.8"/></g><path d="m330.6 259.4c13.7-1.1 13-12.3 13-12.3 9 .5 24.1 55.8-9.2 58.4-38.9 3.1-27-54.3-18.8-54.7-.1 0 1.3 9.6 15 8.6z" fill="#7f1d1b"/><g clip-path="url(#c)"><path d="m364.4 284.3c-3.9-5.4-9.8-8.8-15.9-9.2-6-.4-12.1 2.1-16.5 6.7-4.5-6.3-13-8.2-19.2-4.7s-10 11.8-9.6 19.8c.4 8.1 4.7 15.7 10.6 20.2s13.4 5.9 20.3 4.7c7-1.2 13.4-5.1 18.7-10.3 5.9-5.7 10.8-14.1 9.9-23" fill="#b72d16"/></g><path d="m387.2 205.8c-.2-3.2-.8-6.4-2.6-9.1-1.7-2.6-4.6-4.3-7.6-4.8-3.2-.5-6.3.1-9.2 1.6-3.4 1.7-5.9 4.8-7.7 8-2.4 4.4-3.5 9.4-2.8 14.4.1.7.7 1.2 1.3 1.1.8-.1 1.7-1.2 2.1-1.9 1.3-2.1 2.3-4.7 1.9-7.2-.1-.6.1.7 0 .2v-1.4c0-.3.1-.9 0 .4v-.4c0-.3.2-.7.1-1 0 .1-.3 1.3-.1.6 0-.1.1-.3.1-.4s.1-.3.1-.5c0 .1-.5 1.6-.2.7.1-.3.2-.5.3-.8 0 .1-.6 1.5-.3.6.1-.1.1-.3.2-.4s.1-.2.2-.3c-.7 1.5-.5.8-.3.5.2-.2.3-.5.5-.7.4-.6-.6.7-.3.3a1.38 1.38 0 0 0 .3-.4l.6-.6c.4-.4 0 0-.2.1.1-.1.3-.2.4-.3.2-.2.5-.3.7-.5.5-.4 1.1-.7 1.8-1-.2.1-.4.2-.7.3 2-.9 4.1-1.3 6.4-1.2h-.6c2.3.1 4.7.8 6.5 2.3-.2-.1-.3-.2-.5-.4 1.2 1 2.2 2.4 2.9 3.9-.1-.2-.2-.4-.3-.7.4.9.6 1.8.8 2.8.1.4.2.9.2 1.3.1.9 0-.6 0 0 0 .2 0 .5.1.7 0 .6.1 1.8.9 2 .7.3 1.6-.4 2-.9.8-.9 1.6-2.1 2-3.3.6-1 1.1-2.3 1-3.6zm-111.7 4.6c0-.2.1-1.1 0 0v-.8c0-.4 0-.9.1-1.3.1-1-.1.8 0 .1 0-.2.1-.4.1-.6.2-1.1-.3 1-.1.3.1-.2.3-1.1 0-.1-.4 1 0 .2 0 0 .3-.8-.7 1.6-.2.4.3-.7-.7 1.1-.2.5.6-.9-.5.7-.1.1.2-.2.3-.4.5-.6a1.38 1.38 0 0 0 -.3.4l.3-.3c.4-.4.9-.7 1.3-1l-.6.3c2-1.1 4.1-1.8 6.3-1.9h-.5c3.5-.1 7 1.1 9.5 3.6l-.3-.3a14.21 14.21 0 0 1 3.6 6c-.1-.2-.1-.4-.2-.6.2.6.3 1.2.4 1.9 0 .3.1.6.1.8v.4c-.1-1 0-.4 0-.1 0 .4-.1 1.7.6 1.9.6.2 1.5-.6 1.7-1 .8-1 1.3-2.2 1.9-3.3.4-1.1.8-2.5.9-3.7 0-3.2-.6-6.4-2.5-9.2-1.7-2.5-4-4.5-6.7-5.4-2.8-1-6-1.1-8.9-.2-1.6.5-3.1 1.2-4.5 2.3-1.9 1.5-3.1 3.4-4.1 5.5-2.3 4.4-3.1 9.2-2.9 14.1 0 .6.4 1.1 1 .9.7-.2 1.6-1.3 1.9-2 1.1-2 2-4.6 1.9-7.1zm89.4-29.2c-3.4.9-7 2.7-10.5 2.2-.4-.1-.8-.2-1-.5-.3-.5.2-1.1.6-1.6 4.6-4.1 11-5.2 17.1-5.2 3 0 6.2.1 9.1 1.2 1 .4 4.7 3.3 2.1 4.5-.8.4-2.7-.7-3.6-.9-1.5-.4-3-.6-4.6-.7-3.1-.1-6.2.2-9.2 1zm-82.5 5.2c-3.4.9-7 2.7-10.5 2.2-.4-.1-.8-.2-1-.5-.3-.5.2-1.1.6-1.6 4.6-4.1 11-5.2 17.1-5.2 3 0 6.2.1 9.1 1.2 1 .4 4.7 3.3 2.1 4.5-.8.4-2.7-.7-3.6-.9-1.5-.4-3-.6-4.6-.7-3.1-.2-6.2.2-9.2 1z" fill="#341d09"/><g fill="#212121" opacity=".3"><path d="m341.8 208.3c2.2 10.9 2.8 22 8.2 31.8 6.2 11.6 17.4 15.5 29.6 16.8 10.1 1.1 20.6 1.5 30.4-1.8 4.3-1.3 7.9-3.3 11.2-5.8l-3.4-9.5c-.6-1.7-1.2-3.3-1.9-5-1.2-3.4-2.5-6.7-3.8-10.2-.6-1.8-1.2-3.4-2-5.2l-4.1-10.6c-.5-1.3-1-2.6-1.6-3.9l-29.8 2.1c-3.2.2-27.4 1-32.8 1.3z"/><path d="m347.7 211.4c1.9 9.2 2.4 18.7 7.2 27.2 5.5 9.9 15.5 13.1 26.1 14.3 8.9.9 18.3 1.2 26.9-1.6 14.4-4.6 22.2-16.9 25-31.2.2-.9 1.9-13.3 1.9-13.3l-19.2.6-38.8 2.8zm-23.7-2c-.7 10.1 0 20.2-3.7 29.9-4.4 11.3-14.1 16.1-24.9 18.7-9 2.2-18.6 3.7-27.8 2-15.4-3-25-15-29.8-29.9-.3-1-3.7-13.9-3.7-13.9l19.7-1.9c13.4-.5 26.8-1.3 40.1-2.2 3.2-.2 25.2-2.4 30.1-2.7z"/><path d="m319.1 212.8c-.7 8.6 0 17.3-3.3 25.5-3.8 9.6-12.6 13.7-22.1 16-8 1.9-16.5 3.2-24.6 1.7-13.6-2.5-22.1-12.8-26.2-25.4-.3-.8-3.2-11.8-3.2-11.8l17.4-1.7 35.6-2c2.5-.1 22.1-2 26.4-2.3zm24.1 3.7c.7.1 1.7.2 2.2-.7.4-.6.6-1.8.6-2.8 0-1.1-.1-3.7-.3-4.9-7.9.1-14.8.4-22.2 1.3-.4.1-.9.5-1.2.9-.9 1.2-.8 5.3.1 6.7.4.7 1 .5 1.6.4.8-.2 1.8-.3 2.6-.5 3.5-.6 7.1-1.1 10.6-1.1 2 .1 4 .2 6 .7z"/></g><path d="m339.4 203.9c2.2 10.9 2.8 22 8.2 31.9 6.3 11.6 17.5 15.5 29.7 16.9 10.1 1.1 20.6 1.5 30.5-1.8 16.3-5.3 25.1-19.8 28.2-36.6.2-1.1 2.1-15.6 2.1-15.6l-21.7.7-44 3.1c-3.4.4-27.6 1.1-33 1.4z" fill="#fcfdfd"/><path d="m345.4 207c2 9.2 2.4 18.8 7.2 27.2 5.5 10 15.5 13.2 26.2 14.3 8.9.9 18.4 1.2 27-1.6 14.4-4.6 22.2-16.9 25-31.2.2-.9 1.9-13.3 1.9-13.3l-19.2.6-38.9 2.8c-3.1.3-24.6.9-29.2 1.2z" fill="#24324c"/><path d="m439.5 198.5c1.3-.1 2.9.2 3.6 1.3.5.9.4 2.2-.3 3-.6.8-1.7 1.3-2.7 1.6-1 .2-2.1 0-3.1-.2-.7-.1-1.3-.3-1.9-.8-.9-1-.4-2.9.3-3.8.3-.4.6-.5 1.2-.6 1.1-.3 2-.5 2.9-.5zm-117.9 6.6c-.7 10.1 0 20.2-3.7 29.9-4.4 11.3-14.1 16.1-24.9 18.7-9 2.2-18.6 3.7-27.8 2-15.4-3-25-15-29.8-29.9-.3-1-3.7-13.9-3.7-13.9l19.7-1.9c13.4-.5 26.8-1.3 40.1-2.2z" fill="#fcfdfd"/><path d="m316.7 208.6c-.7 8.6 0 17.3-3.3 25.5-3.8 9.6-12.6 13.7-22.1 16-8 1.9-16.5 3.2-24.6 1.7-13.6-2.5-22.1-12.8-26.2-25.4-.3-.8-3.2-11.8-3.2-11.8l17.4-1.7 35.6-2z" fill="#24324c"/><path d="m230.3 211.7c-1.2.1-2.7.5-3.1 1.7-.4.9-.1 2 .6 2.7.6.7 1.7 1 2.6 1s2-.2 2.8-.5c.6-.2 1.2-.5 1.6-1 .7-1 .1-2.7-.7-3.4-.3-.3-.6-.4-1.1-.4-1-.1-1.9-.2-2.7-.1zm110.5.4c.7.1 1.7.2 2.2-.7.4-.6.6-1.8.6-2.8 0-1.1-.1-3.7-.3-4.9-7.9.1-14.8.4-22.2 1.3-.4.1-.9.5-1.2.9-.9 1.2-.8 5.3.1 6.7.4.7 1 .5 1.6.4.8-.2 1.8-.3 2.6-.5 3.5-.6 7.1-1.1 10.6-1.1 2 .2 4 .4 6 .7z" fill="#fcfdfd"/><path d="m381.7 217.8c6 5.2 11.4 11.1 16.2 17.4.6.8 1.8-1.2 1.9-1.7.3-.7.6-1.6.8-2.4.1-.4.3-1.2 0-1.6-4.9-6.5-10.5-12.6-16.6-17.8-.3-.2-.9.5-.9.6-.4.6-.8 1.3-1 2.1-.4.8-1.2 2.7-.4 3.4zm-12.9-1.1 18 16.8c.2.2 1.5-2.6 1.6-2.9.3-.7.5-1.5.7-2.2.1-.2.3-.8.1-.9l-18-16.8c-.2-.2-1.5 2.6-1.6 2.9-.3.7-.5 1.5-.7 2.2-.1.1-.3.7-.1.9zm-91.2 7.4c6.1 5.3 11.6 11.2 16.4 17.6.7 1 2.1-.9 2.3-1.6.4-.7.7-1.6.7-2.4.1-.5.1-1.2-.2-1.7-4.9-6.4-10.4-12.3-16.4-17.6-.9-.8-2 .8-2.3 1.6-.4.7-.7 1.6-.7 2.4 0 .5-.1 1.4.2 1.7zm-12.5-.9 18 16.8c.4.4 1.7-2.5 1.8-2.8.3-.7.5-1.5.6-2.2 0-.3.2-.8-.1-1l-18-16.8c-.4-.4-1.7 2.5-1.8 2.8-.3.7-.5 1.5-.6 2.2-.1.3-.2.8.1 1z" fill="#757575"/><g stroke-miterlimit="10"><path d="m220.7 388.7c1.1 6.7-3.3 13.2-10.1 14.3l-130.1 22.9c-6.7 1.1-13.2-3.3-14.3-10.1l-52.5-297.3c-1.1-6.7 3.3-13.2 10.1-14.3l130.1-22.9c6.7-1.1 13.2 3.3 14.3 10.1z" stroke="#352836" stroke-width="4.332"/><path d="m124.7 92.7c.6 3.5-1.8 7-5.3 7.6l-56.7 10.1c-3.5.6-7-1.8-7.6-5.3-.6-3.5 1.8-7 5.3-7.6l56.7-10c3.6-.7 7 1.7 7.6 5.2z" stroke="#fffdff" stroke-width=".208"/><path d="m131.5 394.8c1 5.7 6.4 9.5 12.1 8.5s9.5-6.4 8.5-12.1-6.4-9.5-12.1-8.5c-5.7.9-9.6 6.4-8.5 12.1z" fill="none" stroke="#ffedee" stroke-width=".568"/></g><path d="m21.926 121.232 139.448-24.596 46.5 263.63-139.448 24.596z" fill="#fff"/><path d="m104.5 166.3c.9 8.3 0 16-3.1 23.3-.3.8-.8 1.7-1.5 2.4-.7 1-1.6 1-2.6.4-1.7-1-2.9-2.6-4.1-4.1-3.8-5.2-6.6-10.9-8.1-17.1-.5-2.3-.7-4.6-.3-7 .6-4 3.2-6.6 7.2-7.5 1.7-.3 3.4-.5 5.2-.1 3 .7 4.9 2.7 6 5.5.6 1.4.9 2.9 1.3 4.2zm-14.5 2.1c.1.3.2.7.4 1.2.7 1.7 2.1 2.8 3.8 2.9s3-.5 4-1.9c1.5-2.1 1.1-5-.6-6.8-1.8-1.8-4.4-2-6.2-.3-1.3 1.3-1.6 3-1.4 4.9zm-23.6 6.9 1.1 6.5c.1.4 0 .7-.4.9-4 2-8.2 3.4-12.8 3.2-4.4-.1-7.7-2.2-9.6-6-2.1-4-2.9-8.3-2.1-12.8.8-4.1 3.3-7.1 7.1-8.8 4-1.9 8.4-2.3 12.8-1.3.9.2.9.2.7 1.1-.3 1.1-.6 2.4-.8 3.5-.1.6-.3.7-.9.6-2.5-.6-5-.7-7.5.1-3.2 1.1-4.9 3.5-5.2 6.8a12.59 12.59 0 0 0 1.5 7.6c1.7 3.4 4.5 4.4 8.1 3.5.7-.2 1.3-.4 2.1-.6.4-.1.6-.3.5-.8-.3-1.5-.5-2.8-.7-4.3-.1-.5-.3-.6-.8-.5l-3.7.6c-.6.1-.9-.1-1-.7l-.6-3.6c-.1-.5.1-.7.6-.8 3.3-.5 6.5-1.1 9.9-1.7.6-.1.7.1.8.6.2 2.5.6 4.7.9 6.9zm77.2-10.4.7 4.4c0 .2-.4.6-.6.7-2.7 1.8-5.7 2.5-8.9 2.6-2.6.1-5-.6-7-2.3-1.5-1.2-2.4-2.9-3-4.8-.7-2.3-1-4.7-.6-7.1.5-3.9 3.2-7 7.2-7.9 2.4-.5 4.7-.7 7.1.2 2.5 1 4.1 3 4.9 5.6.4 1.3.5 2.8.9 4.1.2.7-.1.9-.7 1l-11.8 2c-.9.2-.9.2-.6 1.1.9 2.4 2.8 3.5 5.5 3.1a14.27 14.27 0 0 0 6.3-2.4c0 .1.2-.1.6-.3zm-5.8-6.6c0-1.3-1-2.8-2.2-3.3-1.5-.6-3.4-.2-4.5.9-.8.9-1.2 2.7-.8 3.6zm-14.2 9.5c.1.3.2.5.2.8l.6 3.5c.1.6-.1.9-.5 1.3-2.1 1.6-4.4 2.2-6.8 2.3-1.3.1-2.7 0-3.9-.3-2.1-.4-3.7-1.8-4.8-3.6-1.9-3.2-2.5-6.6-2-10.4s2.7-6.2 6.3-7.5c2.8-.9 5.6-1.1 8.5-.5.9.2.9.2.7 1.1-.2 1.1-.5 2.3-.6 3.3-.1.5-.3.7-.8.6-1-.2-2.1-.4-3.2-.4-3.3 0-4.9 1.6-4.8 4.9 0 1.5.3 2.9.7 4.3.9 3 3.1 3.9 6.2 3 1.3-.4 2.6-1.1 3.7-2.1 0 0 .2-.1.5-.3zm-30.9-13.2 2.9-4.5 3.3-4c-1.5 1-2.7 2.3-3.7 3.6l-2.8 4.5c-2-2-4.1-3.6-6.8-4.5 2.5 1.3 4.7 2.9 6.6 4.9v.3l-2.4.5c-2.7.3-5.1-.5-7.2-2.1-2-1.5-3.5-3.2-4.6-5.5-.2-.4-.2-.7.3-.8 4.7-.8 8.7 0 12.1 3.4.3.3.6.8.9 1.2s.4.8.7 1.5c.1-2 .6-3.7 1.6-5.3 2.2-3.5 5.4-5.6 9.3-6.7.7-.2 1.5-.2 2.2-.4.7-.1.8.2.7.8-.2 2.6-1 5-2.4 7.2-1.7 2.6-3.7 4.7-6.7 5.7-1.2.3-2.9.5-4 .2zm-18.5 9.6c.7-.9 1.2-2 2.1-2.8 1.3-1.6 3.2-2.1 5.2-2.2.4 0 .7.1.7.6l.4 4.6c0 .5-.2.5-.6.6-1 .2-2.2.3-3.1.7-2.3.9-3.3 2.9-3 5.4.5 3.4 1.1 6.7 1.8 10.2.1.7-.1 1-.8 1.1-1.5.2-2.9.4-4.4.7-.5.1-.7-.1-.8-.6l-3.3-19.9c-.1-.5 0-.7.5-.8l3.4-.6c.4-.1.6.1.8.5.3.7.7 1.7 1.1 2.5zm76.5-12.7c.9-2.3 2.3-3.9 4.5-4.7.8-.3 1.8-.4 2.7-.5.4-.1.7.1.7.6l.4 4.5c0 .4-.2.5-.6.6-.9.1-1.9.2-2.7.5-2.6.8-3.8 2.9-3.3 5.6.5 3.3 1.1 6.7 1.7 10.1.1.7 0 1-.7 1.1-1.5.2-2.9.4-4.4.7-.5.1-.7 0-.8-.6l-3.3-19.9c-.1-.5 0-.7.5-.8l3.4-.6c.4-.1.6.1.8.5.3 1 .7 1.8 1.1 2.9zm-16 35.9.9 5.3c.1.6 0 .9-.7 1-2.1.3-1.8.6-2.2-1.6l-2.4-13.9c-.2-1-.2-1 .8-1.2 1.1-.2 1.1-.2 1.7.9.7-.5 1.3-1.2 2.1-1.7 2.4-1.1 4.8-.2 6 2.2a9.04 9.04 0 0 1 .9 5.6c-.5 4.1-4.6 5.2-7.1 3.4zm-1-4.9.7 2.2c.4 1 1.3 1.3 2.4 1.3 1-.1 1.8-.6 2.1-1.6.5-1.9.2-3.6-.8-5.2-.6-.9-1.5-1-2.9-.6-.9.3-1.5.9-1.5 2-.1.6 0 1.2 0 1.9zm-11.3 6.9.9 5.6c.1.5-.1.7-.5.8-2.5.4-2 .6-2.4-1.6l-2.4-14c-.1-.7 0-1 .7-1 .1 0 .3 0 .4-.1.6-.2 1 0 1.2.7 0 .1.1.3.1.2.7-.5 1.3-1.2 2.2-1.7 2.3-1 4.6-.3 5.8 2 1.1 2 1.5 4.1.9 6.4-.5 3.2-4.1 4.6-6.9 2.7zm-.8-5c.2.6.3 1.2.5 1.9.5 1.3 1.3 1.9 2.6 1.8 1.2-.1 2.2-.9 2.2-2.3a14.22 14.22 0 0 0 -.5-3.6c-.4-1.3-1.5-2-2.8-1.7-1.6.3-2.2 1-2.1 2.7 0 .4.1.8.1 1.2zm-11.4-5.5c.2 0 .4 0 .6-.1.6-.2.9.1 1.2.6l7.5 12.9c.4.7.4.9-.4 1-2.4.3-1.8.7-2.9-1.3l-.9-1.8c-.2-.3-.4-.5-.8-.4l-4.6.7c-.4.1-.6.2-.6.6a35.41 35.41 0 0 0 -.5 3.2c-.1.5-.3.7-.8.7-.5.1-1 .1-1.6.2-.5.1-.7-.1-.6-.6l1.7-8.7 1-5.4c.2-1.7 0-1.4 1.7-1.6zm.4 2.9a114.68 114.68 0 0 1 -1 6.2l3.9-.6c-.8-1.8-1.9-3.6-2.9-5.6z" fill="#f65700"/><g fill="#24324c"><path d="m341.1 401.5c-.2-2.1 1-4.1 3.1-4.9 3.6-1.3 10.5-4.7 15.1-12.2 5.8-9.5 3.9-19.5 3.3-22.3l-.9-3.7 3.5-1.7c13.4-6.2 38.4-21.1 55-50.9 17.7-31.7 16.2-62.4 13.7-78-.4-2.6 1.3-5 3.9-5.4s5 1.3 5.4 3.9c2.7 16.7 4.3 49.8-14.8 84-16.6 29.9-41 45.9-55.9 53.3.8 6 .8 15.9-5.1 25.6-6.1 10.1-15.1 14.5-20 16.2-2.5.8-5.2-.4-6-2.8-.2-.2-.3-.7-.3-1.1z"/><path d="m326.7 386.2c-.2-2.2 1.1-4.3 3.3-4.9.2-.1 17.4-5.4 27.5-15.1l-21.3.8c-2.6.1-4.8-2-4.9-4.6s2-4.8 4.6-4.9l38.9-1.6-3.4 7.1c-8.8 18-37.3 26.8-38.6 27.2-2.5.7-5.1-.6-5.8-3.1-.2-.3-.2-.6-.3-.9z"/></g><g enable-background="new"><path d="m71.3 241.4c-4 .6-6.4 4.3-5.7 8.7.7 4.5 4.1 7.2 8.1 6.6 2.4-.4 5.1-2.3 7-5l7.4 5.8c-3.1 4.6-8.3 8.1-13.4 8.9-10.2 1.6-18.8-4.5-20.3-14.4-1.5-9.8 4.9-18.1 15.4-19.7 5.1-.8 11 .7 15 3.9l-5.2 8.6c-2.5-2.5-5.7-3.8-8.3-3.4zm41.4 13.7-12.5 2-1 5-11.2 1.7 8.8-35.5 11.3-1.8 18.8 31.2-11.7 1.8zm-3.9-7.5-5-9.2-2 10.3z"/><path d="m134.5 222.4 3.8 24.1 13.9-2.2 1.4 9.2-24.9 3.9-5.2-33.3z"/><path d="m162.3 218 3.8 24.1 13.9-2.2 1.4 9.2-24.9 3.9-5.2-33.3z"/></g><path d="m97.8 276 10 16.2 4.5-18.5 11.6-1.8 5.2 33.3-9.6 1.5-2.9-18.2-3.3 15.9-7.2 1.1-8.1-14.1 2.9 18.2-9.6 1.5-5.2-33.3zm59.1-9.2 1.3 8.4-17.1 2.7.6 4.1 15.6-2.5 1.3 8.4-15.6 2.5.6 4.1 17.6-2.8 1.3 8.4-28.6 4.5-5.2-33.3z"/></g></svg>