<svg viewBox="0 0 364 456" xmlns="http://www.w3.org/2000/svg" xmlns:xlink="http://www.w3.org/1999/xlink"><defs><path id="a" d="m56.3 185.8c-3.6 0-6.4 1.5-8.4 4.4s-3 7-3 12.2c0 10.8 4.1 16.1 12.3 16.1 2.5 0 4.9-.3 7.2-1s4.7-1.5 7-2.5v12.8c-4.7 2.1-9.9 3.1-15.8 3.1-8.4 0-14.9-2.4-19.4-7.3s-6.8-12-6.8-21.2c0-5.8 1.1-10.9 3.3-15.3s5.3-7.8 9.4-10.1c4.1-2.4 8.9-3.5 14.4-3.5 6 0 11.8 1.3 17.3 3.9l-4.6 11.9c-2.1-1-4.1-1.8-6.2-2.4-2.1-.7-4.3-1.1-6.7-1.1z"/><linearGradient id="b"><stop offset="0" stop-color="#58595b"/><stop offset=".014" stop-color="#555658"/><stop offset=".189" stop-color="#373738"/><stop offset=".371" stop-color="#1f1f20"/><stop offset=".561" stop-color="#0d0e0e"/><stop offset=".764" stop-color="#030303"/><stop offset="1"/></linearGradient><linearGradient id="c" gradientUnits="userSpaceOnUse" x1="5.9" x2="319.8" xlink:href="#b" y1="256.2" y2="256.2"/><linearGradient id="d" gradientUnits="userSpaceOnUse" x1="158.1" x2="158.1" y1="113.065" y2="449.96"><stop offset="0" stop-color="#f47d23"/><stop offset="1" stop-color="#ffd72f"/></linearGradient><linearGradient id="e" gradientUnits="userSpaceOnUse" x1="249.027" x2="272.702" xlink:href="#b" y1="256.2" y2="256.2"/><clipPath id="f"><circle cx="326.8" cy="160.7" r="31.3"/></clipPath><clipPath id="g"><circle cx="256.2" cy="131.5" r="27.3" transform="matrix(.1602 -.9871 .9871 .1602 85.3593 363.3279)"/></clipPath><clipPath id="h"><circle cx="297.6" cy="75.8" r="24.5"/></clipPath></defs><path d="m318.7 297.7 13.6-8.2h-18.4zm0-83.5 13.6 8.2h-18.4z" fill="#bc530c"/><path d="m290.4 370.4h-255.1c-16.2 0-29.4-13.1-29.4-29.4v-169.6c0-16.2 13.1-29.4 29.4-29.4h255.1c16.2 0 29.4 13.1 29.4 29.4v169.6c0 16.3-13.2 29.4-29.4 29.4z" fill="url(#c)"/><path d="m68.1 117.5c-35.5.2-29 48.6-29 48.6l-.5 265.1c1.6 27.7 21.7 6.7 21.7 6.7l35.5-36.6c8.9-10 26.6-8.1 26.6-8.1h131.9c21.1-2.6 23.3-27.7 23.3-27.7v-219.6c0-25.7-23.3-28.4-23.3-28.4z" fill="none" stroke="url(#d)" stroke-miterlimit="10" stroke-width="8.871"/><path d="m325.9 292.5h-74.3a8.28 8.28 0 0 1 -8.3-8.3v-55.9a8.28 8.28 0 0 1 8.3-8.3h74.3a8.28 8.28 0 0 1 8.3 8.3v55.9a8.28 8.28 0 0 1 -8.3 8.3z" fill="#f28029"/><circle cx="260.9" cy="256.2" fill="url(#e)" r="11.8"/><path d="m62.9 370.4h-25.8c-17.2 0-31.1-13.9-31.1-31.1v-166.1c0-17.2 13.9-31.1 31.1-31.1h25.8z" fill="#414042"/><path d="m257.5 354h-241.8c-5.4 0-9.7-4.3-9.7-9.7v-23.3h251.5a8.28 8.28 0 0 1 8.3 8.3v16.4a8.28 8.28 0 0 1 -8.3 8.3z" fill="#f28029"/><g fill="#fff"><g enable-background="new"><use xlink:href="#a"/><path d="m116.6 230.2-2.8-10.5h-18.2l-2.8 10.5h-16.6l18.3-56.2h20.2l18.5 56.2zm-5.9-22.9-2.4-9.2-2-7.9-1.6-7c-.2 1.3-.7 3.4-1.4 6.4s-2.2 8.9-4.5 17.6zm65 5.9c0 3.5-.9 6.5-2.6 9.2s-4.3 4.8-7.6 6.3-7.2 2.2-11.7 2.2c-3.7 0-6.8-.3-9.4-.8s-5.2-1.4-7.9-2.7v-13.5c2.9 1.5 5.9 2.6 9 3.5 3.1.8 6 1.2 8.6 1.2 2.2 0 3.9-.4 4.9-1.2s1.6-1.8 1.6-3c0-.8-.2-1.4-.6-2s-1.1-1.2-2-1.7c-.9-.6-3.4-1.8-7.4-3.6-3.6-1.7-6.4-3.3-8.2-4.8-1.8-1.6-3.2-3.3-4.1-5.4s-1.3-4.4-1.3-7.2c0-5.2 1.9-9.2 5.6-12 3.7-2.9 8.9-4.3 15.5-4.3 5.8 0 11.7 1.3 17.7 4l-4.6 11.7c-5.2-2.4-9.7-3.6-13.5-3.6-2 0-3.4.3-4.3 1s-1.3 1.5-1.3 2.6.6 2.1 1.7 2.9c1.1.9 4.2 2.4 9.2 4.7 4.8 2.2 8.2 4.5 10 7s2.7 5.7 2.7 9.5zm56.6 17h-15.2v-22.8h-17.6v22.8h-15.2v-55.9h15.2v20.7h17.6v-20.7h15.2z"/></g><g enable-background="new"><path d="m31.4 245h19.5c7.6 0 13.2 1.1 16.9 3.4s5.5 5.8 5.5 10.5c0 3.1-.8 5.8-2.4 8s-3.7 3.6-6.4 4.3v.4c3.5.9 6 2.4 7.5 4.6 1.6 2.1 2.3 4.9 2.3 8.3 0 5.1-1.9 9.1-5.7 12s-9 4.4-15.6 4.4h-21.6zm15.1 21.5h4.6c2.2 0 3.8-.4 5-1.3s1.8-2.2 1.8-4c0-3.1-2.4-4.7-7.1-4.7h-4.2zm0 11v11.7h5.3c4.7 0 7.1-2 7.1-6 0-1.9-.6-3.3-1.9-4.3s-3.1-1.5-5.5-1.5zm72 23.5-2.8-10.5h-18.1l-2.8 10.5h-16.6l18.2-56.2h20.2l18.4 56.2zm-5.9-22.9-2.4-9.2-2-7.9-1.6-7c-.2 1.3-.7 3.4-1.4 6.4s-2.2 8.9-4.5 17.6h11.9z"/><use x="109.7" xlink:href="#a" y="70.8"/><path d="m239.7 301h-17.1l-11.1-21.4-4.5 2.7v18.7h-15.2v-56h15.2v24.3c.8-1.5 2.3-3.9 4.6-7.2l11.7-17.1h16.7l-17.6 25.1z"/></g></g></svg>
