<svg viewBox="0 0 474 267" xmlns="http://www.w3.org/2000/svg"><g fill-rule="evenodd"><path d="m59.8 206.9c3.5 0 6.4 2.8 6.4 6.2 0 .9-.2 1.8-.6 2.6 2.2.2 3.9 1.9 3.9 4 0 2.2-2 4-4.5 4-1.2 0-2.3-.4-3.1-1.1-.9 2-3.3 3.5-6.2 3.5-2.5 0-4.6-1.1-5.7-2.7-.7.7-1.7 1.1-2.9 1.1-1.5 0-2.7-.7-3.4-1.6-.6.2-1.4.3-2.1.3-3.2 0-5.8-2.2-5.8-5 0-.3 0-.7.1-1-.2 0-.4.1-.7.1-2 0-3.6-1.6-3.6-3.5s1.6-3.5 3.6-3.5c.4 0 .7.1 1 .1.2-2.2 2.3-3.8 4.9-3.8 2 0 3.8 1.1 4.5 2.6.1-2.2 2.3-4 4.9-4 2.4 0 4.5 1.5 4.9 3.5 1.3-1.2 2.8-1.8 4.4-1.8z" fill="#6d6e71"/><path d="m18.5 209.5c1.7 0 3.2 1.4 3.2 3.1 0 .5-.1.9-.3 1.3 1.1.1 1.9 1 1.9 2 0 1.1-1 2-2.2 2-.6 0-1.1-.2-1.5-.5-.5 1-1.7 1.7-3.1 1.7-1.2 0-2.3-.5-2.8-1.3-.4.3-.9.5-1.4.5-.7 0-1.3-.3-1.7-.8-.3.1-.7.2-1 .2-1.6 0-2.9-1.1-2.9-2.5a.9.9 0 0 1 .1-.5h-.3c-1 0-1.8-.8-1.8-1.7 0-1 .8-1.7 1.8-1.7.2 0 .3 0 .5.1.1-1.1 1.1-1.9 2.4-1.9 1 0 1.9.5 2.2 1.3.1-1.1 1.1-2 2.4-2 1.2 0 2.2.7 2.4 1.7.6-.7 1.3-1 2.1-1z" fill="#bcbec0"/></g><path d="m266.5 30.1h7.6v77.1h-7.6zm-72.9 192.4h-107.5c-1.3 0-2.4-1.1-2.4-2.4v-9.1c0-1.3 1.1-2.4 2.4-2.4h28.5l15.8-17.5 40.5-3.7z" fill="#cc3006"/><g fill-rule="evenodd"><path d="m276.7 155.6v15.6h51.8c2.1 0 3.5-2.1 2.8-4-1.3-3.5-3.7-6.4-6.6-8.4s-6.5-3.2-10.2-3.2z" fill="#992005"/><path d="m275.8 219.3h52.8l-.2-1.8-5.5-46.3h-46.2l-.9 45.9z" fill="#bcbec0"/></g><path d="m266.5 100.5v121.2l25.4.7-.3-3.1-.2-1.8-6.3-61.9-5.7-55.1z" fill="#f15a29"/><ellipse cx="436.8" cy="230.8" fill="#231f20" rx="33.1" ry="31.5" transform="matrix(.9857 -.1683 .1683 .9857 -32.613 76.807)"/><ellipse cx="436.8" cy="230.8" fill="#f28029" rx="23.3" ry="22.2" transform="matrix(.9857 -.1683 .1683 .9857 -32.613 76.807)"/><path d="m445.4 230.8c-.1 4.6-4 8.3-8.8 8.3s-8.6-3.7-8.5-8.3 4-8.3 8.8-8.3 8.6 3.7 8.5 8.3z" fill="#f0f9f8"/><path d="m420 175.7s25.2.5 36.1 10.5c15.1 13.9 13.6 28.5 13.6 28.5s-60.6 10.4-75.2 4.8z" fill="#f15a29"/><path d="m422.4 178c9 1.8 18.1 4.6 25.7 9.8s13.7 13.2 15 22.3c-5.5 1.3-11 1.6-16.5 2.8.4-2-1.4-3.8-2.3-5.6-2.8-5.6-6.1-11-10.4-15.5s-9.8-8.1-15.9-9.3c.6-2 2.5-3.6 4.4-4.5z" fill="#f0f9f8" opacity=".1"/><ellipse cx="147.6" cy="230.8" fill="#231f20" rx="33.1" ry="31.5" transform="matrix(.9857 -.1683 .1683 .9857 -36.738 28.134)"/><ellipse cx="147.6" cy="230.8" fill="#f28029" rx="23.3" ry="22.2" transform="matrix(.9857 -.1683 .1683 .9857 -36.738 28.134)"/><path d="m156.3 230.8c-.1 4.6-4 8.3-8.8 8.3s-8.6-3.7-8.5-8.3 4-8.3 8.8-8.3 8.6 3.7 8.5 8.3z" fill="#f0f9f8"/><path d="m96.5 78.6v45.5h88.8v-61.3c0-14.8 12-26.7 26.7-26.7h183.3l-2.3-3.1c-13.2-18.4-34.5-29.2-57.1-29.2h-164.5c-41.3-.1-74.9 33.5-74.9 74.8z" fill="#f28029"/><path d="m96.5 124.2v90.6h12.6c6.6 0 12.7-3.7 15.8-9.5l2.6-4.9a7.47 7.47 0 0 1 6.6-4h31.8c2.9 0 5.6 1.7 6.8 4.3l7.7 16.3c2.9 6.2 9.2 10.2 16.1 10.2h20.2v-58.5c0-10.2-4.3-20-11.9-26.8l-19.6-17.8h-88.7z" fill="#f15a29"/><path d="m438 167.4h-.3v-23.7h.3c3 0 5.4 2.4 5.4 5.4v13c0 2.9-2.4 5.3-5.4 5.3z" fill="#fff"/><path d="m89.4 208.6h1.9v13.8h-1.9zm178 8.9h-50.6l-7.2-30.1h-113v-173.4c0-5.7 4.6-10.3 10.3-10.3h160.6z" fill="#f15a29"/><g fill="#f28029" stroke="#bc2f0a" stroke-miterlimit="10"><path d="m180.7 192.4h-84.2v-177.8a10.93 10.93 0 0 1 10.9-10.9h73.2z" stroke-width=".728"/><path d="m180.6 3.7h86.8v94.3h-86.8zm0 94.4h86.8v94.3h-86.8z" stroke-width=".523"/></g><path d="m139 96.9v7.9c0 .5-.1.8-.6 1-5.1 1.5-10.3 2.3-15.6 1.3-5.1-1-8.5-4-10.1-8.9-1.7-5.1-1.8-10.3.1-15.3 1.7-4.7 5.2-7.6 10-8.9 5.1-1.4 10.2-1 15.2.9 1.1.4 1.1.4.6 1.5-.6 1.3-1.1 2.6-1.6 4-.2.6-.5.8-1.2.5-2.8-1.2-5.7-1.8-8.8-1.3-4 .7-6.4 3.1-7.4 6.9-.8 3-.7 6.1.2 9.1 1.3 4.3 4.3 6 8.8 5.8.9 0 1.7-.2 2.6-.3.5-.1.8-.2.8-.8v-5.1c0-.6-.3-.8-.8-.8h-4.5c-.7 0-1-.3-1-1v-4.4c0-.6.2-.8.8-.8h11.8c.7 0 .9.3.9.9-.2 2.6-.2 5.2-.2 7.8zm92.1 3.1v5.3c0 .3-.5.6-.9.8-3.5 1.5-7.1 1.7-10.9 1.2-3-.4-5.7-1.6-7.7-4.1-1.5-1.8-2.3-3.9-2.6-6.1-.3-2.8-.3-5.6.6-8.4 1.4-4.5 5.2-7.4 9.9-7.7 2.9-.2 5.6.1 8.2 1.7 2.7 1.7 4.2 4.3 4.6 7.5.2 1.6.1 3.3.2 5 .1.8-.3 1-1 1h-14.2c-1.1 0-1.2.1-1 1.2.6 3 2.6 4.7 5.8 4.7 2.7 0 5.3-.5 7.8-1.6.3-.2.6-.3 1.2-.5zm-5.6-8.9c.3-1.5-.6-3.5-1.9-4.3-1.5-.9-4-.9-5.4.2-1.2.9-2 2.9-1.7 4.1zm-18.4 8.3c.1.4.1.7.1 1v4.2c0 .7-.3 1.1-.9 1.4-2.7 1.4-5.6 1.7-8.5 1.4-1.6-.2-3.1-.6-4.6-1.1-2.4-.9-4-2.8-4.8-5.1-1.5-4.1-1.6-8.3-.3-12.5 1.3-4.3 4.4-6.8 8.8-7.5 3.4-.6 6.8-.2 10 1.1 1.1.4 1.1.5.7 1.5-.5 1.3-1 2.5-1.4 3.8-.2.6-.5.8-1.1.5-1.2-.4-2.4-.9-3.6-1.1-3.9-.6-6 .9-6.5 4.8a21.75 21.75 0 0 0 0 5.1c.5 3.7 2.8 5.3 6.7 4.7 1.7-.3 3.3-.8 4.8-1.7 0-.2.2-.3.6-.5zm-22-5.6c-.6 9.9-3.2 18.7-8.2 26.7-.6.9-1.3 1.7-2.1 2.5-1.1 1-2 1-3.1 0-1.8-1.6-2.9-3.6-4-5.7-3.4-6.8-5.6-14-6.1-21.6-.2-2.8.1-5.5 1-8.2 1.5-4.6 5-7.1 9.8-7.3 2.1-.1 4.1.1 6 .9 3.4 1.4 5.2 4.1 6 7.5.4 1.9.5 3.8.7 5.2zm-17.3-.2c0 .3.1.9.2 1.5.6 2.1 1.8 3.6 4 4.2 1.9.5 3.7 0 5.1-1.4 2-2.1 2.3-5.6.6-8.1s-4.7-3.1-7.2-1.5c-1.9 1.1-2.6 2.9-2.7 5.3zm5.8-15.6 4.2-4.7c1.4-1.4 3-2.7 4.7-4.1-1.9 1-3.6 2.1-5.1 3.5l-4.2 4.7c-1.9-2.6-4.1-5.1-7.1-6.5 2.6 2 4.9 4.3 6.9 6.9 0 .1-.1.2-.1.3l-2.9.2c-3.2-.2-5.8-1.6-8-3.9-2-2.1-3.5-4.5-4.2-7.3-.1-.5-.1-.9.6-1 5.6-.1 10.2 1.7 13.5 6.4a11.94 11.94 0 0 1 .8 1.6 18.88 18.88 0 0 1 .6 1.8c.5-2.3 1.4-4.2 2.9-5.9 3.3-3.7 7.4-5.5 12.3-6 .9-.1 1.7 0 2.6 0s.9.4.7 1.1c-.8 3-2.2 5.5-4.2 7.8-2.4 2.7-5.3 4.6-9 5.3-1.7.5-3.7.4-5-.2zm-23.4 7.5 2.9-2.9c1.9-1.6 4.2-1.8 6.5-1.6.5.1.8.3.7.8l-.4 5.4c0 .6-.4.6-.8.6-1.3 0-2.5-.1-3.8.2-2.9.6-4.5 2.7-4.5 5.7v12.2c0 .9-.3 1.1-1.1 1.1-1.8-.1-3.5 0-5.3 0-.6 0-.8-.2-.8-.9v-23.9c0-.6.2-.8.8-.8h4.1c.5 0 .7.3.8.8zm91.8.2c1.6-2.4 3.4-4.1 6.1-4.6 1.1-.2 2.2-.1 3.3-.1.5 0 .8.3.8.9l-.4 5.3c0 .5-.3.6-.8.6-1.1 0-2.2-.1-3.3 0-3.2.5-5 2.6-5 5.9v12.1c0 .9-.2 1.2-1.1 1.1-1.8-.1-3.5 0-5.3 0-.6 0-.9-.2-.9-.8v-23.9c0-.6.2-.9.8-.9h4.1c.5 0 .8.2.9.7.2 1.3.5 2.4.8 3.7z" fill="#f2f2f2"/><text fill="#f2f2f2" font-family="OpenSans-Bold" font-size="24.704" transform="translate(189.25 130.58)">App</text><path d="m315.9 102.6 46.7 33.2 15.1-5.5m-63.4 32.3 38.5 8.2 13 37.8" fill="none" stroke="#414042" stroke-miterlimit="10" stroke-width="3.578"/><path d="m309 87.7s5.9 2.5 5.3 16.6c0 0-.3 12.8-4.8 14.1 0 0 4.6 4.4 8.4-2.7 0 0 4.3-9.1 3.1-16.7-.1 0-3.1-19.7-12-11.3zm3.5-12.8s-10.9-2.3-15.6 3.5c0 0-7.6 8-6.1 29 0 0 3.6 42.4 10.7 56.7 0 0 2.2 6.3 10.9 3.5 0 0-4.4-2.9-6.8-15.5 0 0-6.9-38.5-6.2-59.7.1-.2.9-17 13.1-17.5zm15.5-29s-3.6-1.7-13-1.1c0 0-6.8.8-11.8 9.4l6.2 14 8.2-14.8 7.4-5.4z" fill="#cc3006"/><path d="m312.5 74.9s-15.1-.9-13 26.4c0 0 0 27.7 8.2 59.3 0 0 1.3 5.6 4.8 6.9 0 0 10.8-9.9 12.5-70.5.1-.1.1-20-12.5-22.1zm.6 44.9s-7.9.5-8.1-15.8c0 0-1.5-16.8 8.1-17.9 0 0 7.4-.1 7.4 15.7 0 0 0 17.3-7.4 18z" fill="#f15a29"/><path d="m296.8 51.8s-10.1-1.2-12-.9c0 0-1 .1-.6 1.4 0 0 .7 12.1 7.5 18.3 0 0 3 2.1 12.9 1.7v-4z" fill="#cc3006"/><path d="m309.5 67.6s3.6-22.1 18.5-21.7c0 0 1.8.5-4.1 15.4 0 0-6.8 14.6-14.3 10.5 0 0 6.2-13.2 9.1-15.8 0 0-2.8 1.1-9.4 14.8 0 0-3.4-9.8-6.4-11 0 0 5 7.1 6.1 11.7.1.4 0 .6-.2.6 0 0-4.9 3-9.7-4.7 0 0-3.9-7.8-4.2-14.3 0 0-.2-1.3 1.2-1.2 0 0 10.5-1.8 13.4 15.7z" fill="#f15a29"/><path d="m308.4 165.5 41 8.2 11 35.3" fill="none" stroke="#000" stroke-miterlimit="10" stroke-width="3.578"/><g fill-rule="evenodd"><path d="m356.2 204.8c-.1 1.1-1.1 11.4-.7 11.3s12.3-.3 18.3-1c6-.6 12.7-5.7 10.7-7s-12.4-.5-14.4-1.3-4.4-2.7-4.4-2.7z" fill="#a95c40"/><path d="m379.6 207.3c-3.7-.1-8.2 0-9.4-.5-2-.8-4.4-2.7-4.4-2.7l-1.9.1c.6 1.5 2.4 4.4 3.6 4.9 1.6.6 8.7.9 10 .7.9-.2 1.7-1.4 2.1-2.5z" fill="#76564b"/></g><path d="m299.4 115 46.7 33.1 30.3-12.2" fill="none" stroke="#000" stroke-miterlimit="10" stroke-width="3.578"/><g fill="#f28029"><path d="m352.4 36.1s24.6 27.9 24.6 85.1h59.8s-.8-6.2-3.5-15.8c-.3-.9-.5-1.9-.8-2.9-1.2-4.2-2.8-9-4.7-14-.2-.6-.5-1.3-.7-1.9s-.5-1.3-.8-1.9-.5-1.3-.8-2c-.2-.5-.5-1.1-.7-1.6s-.5-1.1-.7-1.6c-.7-1.6-1.5-3.3-2.3-4.9-.3-.6-.6-1.3-.9-1.9-.2-.4-.4-.7-.6-1.1a11.94 11.94 0 0 1 -.8-1.6c-2.3-4.4-4.9-8.9-7.8-13.4-.4-.6-.8-1.3-1.3-1.9-.3-.4-.6-.8-.8-1.2-.4-.5-.7-1-1.1-1.5-.3-.4-.6-.9-.9-1.3l-1-1.3c-.5-.7-1.1-1.4-1.6-2.2-.5-.6-1-1.2-1.5-1.9l-1.2-1.5c-2.1-2.6-4.4-5.1-6.8-7.5h-43.1z"/><path d="m216.8 214.8v12.5h159.3c8 0 15.6-2.4 22-6.8 3.9-2.7 7.4-6.1 10.2-10.1 5.9-8.5 12.6-20.1 18.1-34.2 1.4-3.6 2.7-7.4 3.9-11.4 2-6.5 3.6-13.4 4.7-20.7.7-4.8 1.3-9.8 1.6-15 0-.8.1-1.7.1-2.5.1-1.8.1-3.6.1-5.4h-59.8l.2 5.4v2.5c.4 21.6-.2 80.5-17.6 85.8-5.3 1.6-16.9 2.4-31.2 2.7a920.51 920.51 0 0 1 -37-.1l-15.6-.4-9.4-.3-29.5-1.1z"/></g><path d="m379.1 61 10.6 28.9c3.4 9.3 12.2 15.5 22.1 15.5h21.5c-.3-.9-.5-1.9-.8-2.9-4.5-15.3-13.1-37.6-29.1-57.3l-1.2-1.5h-10.9c-9-.1-15.3 8.9-12.2 17.3z" fill="#f15a29"/><path d="m382.1 61.2 10.4 26.8c2.2 5.6 6.5 9.9 12 12.3 2.1.9 4.3 1.5 6.7 1.8 1 .1 2 .2 3.1.2h18.3c-4.5-15.3-13.1-37.6-29.1-57.3h-9.5c-2.4 0-4.6.6-6.5 1.7-1.6.9-2.9 2.1-4 3.5-.6.9-1.1 1.8-1.5 2.8-.9 2.6-1 5.5.1 8.2z" fill="#3ab4db"/><path d="m387.6 46.8 29.2 55.7h14l-35-57.3h-1.8c-2.4-.1-4.6.5-6.4 1.6zm-5.5 6.3 22.4 47.3c2.1.9 4.3 1.5 6.7 1.8l-27.5-51.9c-.7.9-1.2 1.8-1.6 2.8z" fill="#45e0be" opacity=".5"/><path d="m437.7 143.7v23.7c-6.5 0-11.9-5.3-11.9-11.9.1-6.5 5.4-11.8 11.9-11.8zm-35.8 28.4h-3.1v18.8h2.4zm-5.8 0h-3.1v18.8h2.3zm-5.8 0h-3.1v18.8h2.5zm-13.2-45.5v2.5h59.4l.1-2.5zm-109.7 90.3v-24.5h-170.9v22.4h12.6c6.6 0 12.7-3.7 15.8-9.5l2.6-4.9c1.3-2.5 3.8-4 6.6-4h31.8c2.9 0 5.6 1.7 6.8 4.3l7.7 16.3c2.9 6.2 9.2 10.2 16.1 10.2h76.5v-10.2c-1.8 0-3.7-.1-5.6-.1z" fill="#f15a29"/></svg>
