<svg xmlns="http://www.w3.org/2000/svg" viewBox="0 0 480 300.01" ><g fill-rule="evenodd"><path d="M480 283.96c0 8.83-7.2 16.05-16.05 16.05H16.05C7.22 300 0 292.8 0 283.96V16.05C0 7.22 7.22 0 16.05 0h447.9C472.78 0 480 7.22 480 16.05v267.9z" fill="#14477c"/><path d="M296.48 233.88l4.4-.1 4.43-.27 4.32-.64 4.24-.72 4.15-1 4.15-1.08 3.96-1.44 3.97-1.53 3.8-1.72 3.7-1.9 3.6-2.08 3.52-2.25 3.43-2.43 3.25-2.53 3.06-2.7 3.06-2.9 2.8-2.98 2.7-3.15 2.6-3.25 2.43-3.33 2.17-3.52 2.17-3.6 1.8-3.7 1.8-3.88 1.54-3.88 1.35-4.06 1.17-4.06 1-4.14.73-4.34.54-4.23.35-4.42.1-4.42-.1-4.42-.35-4.42-.54-4.24-.73-4.23-1-4.15-1.17-4.06-1.35-4.06-1.54-3.87-1.8-3.8-1.8-3.7-2.17-3.6-2.17-3.52-2.43-3.34-2.6-3.24-2.7-3.16-2.8-2.97-3.06-2.8-3.06-2.7-3.25-2.6-3.43-2.35-3.52-2.25-3.6-2.07-3.7-1.9-3.8-1.7-3.97-1.53-3.96-1.36-4.15-1.17-4.15-1-4.24-.72-4.32-.54-4.43-.36-4.4-.1-4.42.1-4.33.36-4.33.54-4.23.72-4.15 1-4.15 1.17-3.97 1.36-3.88 1.53-3.8 1.7-3.7 1.9-3.6 2.07-3.52 2.25-3.33 2.35-3.25 2.6-3.16 2.7-2.97 2.8-2.9 2.97-2.6 3.16-2.62 3.24-2.34 3.34-2.26 3.52-2.07 3.6-1.9 3.7-1.72 3.8-1.53 3.87-1.35 4.06-1.17 4.06-1 4.15-.7 4.23-.55 4.24-.36 4.42-.1 4.42.1 4.42.36 4.42.55 4.23.7 4.34 1 4.14 1.17 4.06 1.35 4.06 1.53 3.88 1.72 3.88 1.9 3.7 2.07 3.6 2.26 3.52 2.34 3.33 2.62 3.25 2.6 3.15 2.9 2.98 2.97 2.9 3.16 2.7 3.25 2.53 3.33 2.43 3.52 2.25 3.6 2.08 3.7 1.9 3.8 1.72 3.88 1.53 3.97 1.44 4.15 1.08 4.15 1 4.23.72 4.33.64 4.33.27z" fill="#fbb230"/><path d="M181.32 234.97l4.42-.08 4.33-.27 4.33-.64 4.23-.72 4.16-1 4.15-1.08 3.96-1.45 3.88-1.52 3.8-1.72 3.7-1.9 3.6-2.08 3.5-2.25 3.34-2.43 3.25-2.53 3.16-2.7 2.97-2.9 2.9-2.97 2.62-3.16 2.6-3.24 2.34-3.34 2.25-3.52 2.07-3.6 1.9-3.7 1.72-3.87 1.53-3.88 1.35-4.06 1.18-4.06 1-4.15.7-4.33.54-4.23.37-4.43.1-4.4-.1-4.42-.37-4.42-.54-4.24-.7-4.23-1-4.15-1.18-4.06-1.35-4.06-1.53-3.87-1.72-3.8-1.9-3.7-2.07-3.6-2.25-3.5-2.34-3.34-2.6-3.24-2.62-3.16-2.9-2.98-2.97-2.8-3.16-2.7-3.25-2.6-3.34-2.35-3.5-2.25-3.6-2.07-3.7-1.9-3.8-1.7-3.88-1.53-3.96-1.36-4.15-1.17-4.16-1-4.23-.72-4.33-.54-4.33-.37-4.42-.08-4.4.08-4.43.37-4.32.54-4.24.72-4.14 1-4.16 1.17-3.96 1.36-3.97 1.53-3.8 1.7-3.7 1.9-3.6 2.07-3.5 2.25-3.43 2.35-3.25 2.6-3.07 2.7-3.06 2.8-2.8 2.98-2.7 3.16-2.6 3.24-2.43 3.34-2.17 3.5-2.17 3.6-1.8 3.7-1.8 3.8-1.53 3.87-1.35 4.06-1.18 4.06-.9 4.15-.8 4.23-.54 4.24-.36 4.42-.1 4.42.1 4.4.36 4.43.54 4.23.8 4.33.9 4.15 1.18 4.06 1.35 4.06 1.53 3.88 1.8 3.87 1.8 3.7 2.17 3.6 2.17 3.52 2.43 3.34 2.6 3.24 2.7 3.16 2.8 2.97 3.06 2.9 3.07 2.7 3.25 2.53 3.43 2.43 3.5 2.25 3.6 2.08 3.7 1.9 3.8 1.72 3.97 1.52 3.96 1.45 4.16 1.08 4.14 1 4.24.72 4.32.64 4.43.27z" fill="#eb2230"/><path d="M228.84 94.74h45.73v-4.7H232.8zM222 105.1h52.58v-4.7H224.7zm-5.15 10.38h57.72v-4.7h-55.64zm-3.52 10.37h61.24v-4.6h-59.8zm2.07 50.32h59.34v-4.7h-60.77zm4.34 10.37h55v-4.7h-57.17zm6.22 10.36h48.78v-4.7h-51.76zm8.48 10.38h40.3v-4.7H230.3zm-23.18-71.06h63.3v-4.6h-62.4zm-1.62 16.7h6.3v4.7H210zm164.84 43.27c2.26 0 4.06 1.9 4.06 4.05 0 2.26-1.8 4.06-4.06 4.06s-4.05-1.8-4.05-4.06a4.08 4.08 0 0 1 4.05-4.05h0zm0 .72c1.9 0 3.43 1.53 3.43 3.33 0 1.9-1.53 3.43-3.43 3.43-1.8 0-3.34-1.53-3.34-3.43 0-1.8 1.54-3.33 3.34-3.33h0z" fill="#fbb230"/></g><path d="M372.95 202.05v-3.43h1.44c.36 0 .63 0 .8.1a1.4 1.4 0 0 1 .36.27c.1.18.18.36.18.54 0 .27-.1.54-.18.64-.18.18-.45.27-.73.36.2.1.28.18.37.27s.27.27.36.54l.45.72h-.8l-.55-.8c-.1-.27-.27-.36-.36-.45 0-.1-.1-.1-.18-.18h-.45v1.44h-.7zm.7-2h.45c.36 0 .54 0 .63-.1.1 0 .2 0 .2-.1.1-.1.1-.18.1-.27s0-.18-.1-.27c-.1-.1-.2-.1-.28-.18h-1v.9z" fill="#fbb230"/><g fill-rule="evenodd"><path d="M223.53 149.3h10.37c1.17-8.2-8.66-6.6-10.37 0h0zm-58.6 5.86c-1.35 0-4.5-.9-7.22.9-2.7 1.8-3.6 4.95-.44 5.86 2.7.9 6.3-.9 7.2-3.6l.45-3.16z" fill="#eb2230"/><path d="M354 146.6c-2.7-3.6-8.56-.9-10.37 5.86-1.35 4.5 1.36 7.67 4.06 7.67 5.68 0 9.1-9.3 6.3-13.53h0zm-143.83 10.48h63.3v-4.6h-62.4zm-1.1-9.88h63.3v-4.6h-62.4zm3.03 19.1h59.34v-4.7h-60.78z" fill="#fbb230"/></g></svg>
