<svg xmlns="http://www.w3.org/2000/svg" xmlns:xlink="http://www.w3.org/1999/xlink" viewBox="0 0 472.7 375" xmlnsV="https://vecta.io/nano"><linearGradient id="A" gradientUnits="userSpaceOnUse" x1="236.2" y1="373.292" x2="236.2" y2="131.192"><stop offset="0" stop-color="#e6860e"/><stop offset=".218" stop-color="#e98e16"/><stop offset=".563" stop-color="#f1a52c"/><stop offset=".989" stop-color="#ffca50"/><stop offset="1" stop-color="#ffcb51"/></linearGradient><linearGradient id="B" gradientUnits="userSpaceOnUse" x1=".795" y1="252.242" x2="471.605" y2="252.242"><stop offset="0" stop-color="#fff33b"/><stop offset=".04" stop-color="#fee72e"/><stop offset=".117" stop-color="#fed51b"/><stop offset=".196" stop-color="#fdca10"/><stop offset=".281" stop-color="#fdc70c"/><stop offset="1" stop-color="#fbb040"/></linearGradient><path d="M417.5 373.3H54.8c-29.4 0-53.2-23.8-53.2-53.2V184.4c0-29.4 23.8-53.2 53.2-53.2h362.8c29.4 0 53.2 23.8 53.2 53.2v135.7c-.1 29.4-23.9 53.2-53.3 53.2z" fill="url(#A)" stroke="url(#B)" stroke-width="1.61" stroke-miterlimit="10"/><linearGradient id="C" gradientUnits="userSpaceOnUse" x1="236.2" y1="346.392" x2="236.2" y2="158.092"><stop offset="0" stop-color="#f29322"/><stop offset=".181" stop-color="#ea891d"/><stop offset=".494" stop-color="#d66c10"/><stop offset=".816" stop-color="#bd4900"/></linearGradient><linearGradient id="D" gradientUnits="userSpaceOnUse" x1="236.2" y1="347.294" x2="236.2" y2="157.191"><stop offset="0" stop-color="#fff33b"/><stop offset=".035" stop-color="#fee72e"/><stop offset=".101" stop-color="#fed51b"/><stop offset=".17" stop-color="#fdca10"/><stop offset=".243" stop-color="#fdc70c"/><stop offset=".625" stop-color="#f3903f"/><stop offset=".888" stop-color="#ed683c"/><stop offset="1" stop-color="#e93e3a"/></linearGradient><path d="M418.4 346.4H54c-20.3 0-36.8-16.5-36.8-36.8V194.9c0-20.3 16.5-36.8 36.8-36.8h364.4c20.3 0 36.8 16.5 36.8 36.8v114.7c0 20.4-16.5 36.8-36.8 36.8z" fill="url(#C)" stroke="url(#D)" stroke-width="1.804" stroke-miterlimit="10"/><linearGradient id="E" gradientUnits="userSpaceOnUse" x1="236.7" y1="341.792" x2="236.7" y2="162.392"><stop offset="0" stop-color="#2e8bcf"/><stop offset="1" stop-color="#174288"/></linearGradient><path d="M419 341.8H54.4c-16.2 0-29.3-13.1-29.3-29.3V191.7c0-16.2 13.1-29.3 29.3-29.3H419c16.2 0 29.3 13.1 29.3 29.3v120.9c-.1 16.1-13.2 29.2-29.3 29.2z" fill="url(#E)"/><linearGradient id="F" gradientUnits="userSpaceOnUse" x1="236.65" y1="163.792" x2="236.65" y2="341.792"><stop offset="0" stop-color="#2e8bcf"/><stop offset="1" stop-color="#174288"/></linearGradient><path d="M417.6 341.8H55.8c-15.8 0-28.6-12.8-28.6-28.6V192.4c0-15.8 12.8-28.6 28.6-28.6h361.7c15.8 0 28.6 12.8 28.6 28.6v120.9c0 15.7-12.8 28.5-28.5 28.5z" fill="url(#F)"/><image width="277" height="112" transform="matrix(.9956 0 0 .9956 93.3603 157.6932)" overflow="visible" opacity="0"/><path d="M139.8 200.3h20.3V228c-3.3 1.1-6.5 1.8-9.6 2.3s-6.3.7-9.9.7c-8.3 0-14.8-2.5-19.3-7.4s-6.8-11.9-6.8-20.9c0-8.9 2.5-15.8 7.6-20.8s12.1-7.5 21.1-7.5c5.8 0 11.2 1.1 16.4 3.3l-3.2 7.5c-4.5-2.1-8.9-3.1-13.4-3.1-5.9 0-10.5 1.8-13.9 5.5s-5.1 8.7-5.1 15.1c0 6.7 1.5 11.8 4.6 15.4 3.1 3.5 7.5 5.3 13.3 5.3 2.9 0 6-.4 9.3-1.1v-14.2h-11.4v-7.8zm53.7-12.5c1.8 0 3.3.1 4.4.4l-.9 8.3c-1.3-.3-2.6-.5-3.9-.5-3.5 0-6.4 1.2-8.6 3.5s-3.3 5.3-3.3 9v21.8h-8.9v-41.7h6.9l1.2 7.3h.5c1.4-2.5 3.2-4.5 5.4-5.9 2.2-1.5 4.6-2.2 7.2-2.2zm49.1 21.5c0 6.8-1.7 12.1-5.2 15.9s-8.4 5.7-14.6 5.7c-3.9 0-7.3-.9-10.3-2.6-3-1.8-5.3-4.3-6.9-7.6s-2.4-7.1-2.4-11.5c0-6.8 1.7-12 5.2-15.8s8.4-5.7 14.7-5.7c6 0 10.8 1.9 14.3 5.8s5.2 9.2 5.2 15.8zm-30.3 0c0 9.6 3.6 14.4 10.7 14.4 7 0 10.5-4.8 10.5-14.4 0-9.5-3.5-14.3-10.6-14.3-3.7 0-6.4 1.2-8.1 3.7s-2.5 6-2.5 10.6zm57.3 21.7c-6.3 0-11.1-1.8-14.4-5.5s-4.9-9-4.9-15.8c0-7 1.7-12.4 5.1-16.2s8.4-5.7 14.9-5.7c4.4 0 8.3.8 11.9 2.4l-2.7 7.1c-3.7-1.5-6.8-2.2-9.3-2.2-7.2 0-10.8 4.8-10.8 14.4 0 4.7.9 8.2 2.7 10.5s4.4 3.5 7.9 3.5c3.9 0 7.7-1 11.2-2.9v7.7c-1.6.9-3.3 1.6-5.1 2-1.8.5-4 .7-6.5.7zm39.6 0c-6.5 0-11.5-1.9-15.2-5.7s-5.5-9-5.5-15.6c0-6.8 1.7-12.2 5.1-16 3.4-3.9 8-5.8 14-5.8 5.5 0 9.8 1.7 13 5s4.8 7.9 4.8 13.8v4.8h-27.8c.1 4 1.2 7.2 3.3 9.3 2.1 2.2 5 3.3 8.7 3.3 2.5 0 4.8-.2 6.9-.7s4.4-1.2 6.8-2.3v7.2c-2.2 1-4.3 1.8-6.6 2.2-2.2.3-4.7.5-7.5.5zm-1.7-36.5c-2.8 0-5.1.9-6.8 2.7s-2.7 4.4-3 7.8h18.9c-.1-3.4-.9-6-2.5-7.8-1.5-1.8-3.8-2.7-6.6-2.7zm49-6.7c1.8 0 3.3.1 4.4.4l-.9 8.3c-1.3-.3-2.6-.5-3.9-.5-3.5 0-6.4 1.2-8.6 3.5s-3.3 5.3-3.3 9v21.8h-8.9v-41.7h6.9l1.2 7.3h.5c1.4-2.5 3.2-4.5 5.4-5.9 2.3-1.5 4.7-2.2 7.2-2.2z" enable-background="new" fill="#fff"/><image width="363" height="178" transform="matrix(.9967 0 0 .9967 48.0375 215.4237)" overflow="visible" opacity="0"/><path d="M121.5 260.6c-5.6 0-10 2.3-13.2 6.9s-4.7 11-4.7 19.1c0 16.8 6.4 25.3 19.2 25.3 3.9 0 7.6-.5 11.3-1.6a132.18 132.18 0 0 0 11-3.9v20c-7.3 3.2-15.6 4.8-24.8 4.8-13.2 0-23.3-3.8-30.4-11.5-7-7.7-10.6-18.7-10.6-33.2 0-9.1 1.7-17 5.1-23.9s8.3-12.1 14.7-15.8 13.9-5.5 22.6-5.5c9.5 0 18.5 2.1 27.1 6.2l-7.2 18.6c-3.2-1.5-6.5-2.8-9.7-3.8s-6.7-1.7-10.4-1.7zm40.6 69.4v-87.5h23.6v68.4h33.7V330h-57.3zm145.7-87.5v52.7c0 11.5-3.2 20.3-9.7 26.6s-15.8 9.4-28 9.4c-11.9 0-21.1-3.1-27.5-9.2s-9.6-14.9-9.6-26.3v-53.2h23.8v51.3c0 6.2 1.2 10.7 3.5 13.5s5.7 4.2 10.2 4.2c4.8 0 8.3-1.4 10.5-4.2s3.3-7.3 3.3-13.6v-51.2h23.5zm18.3 0h30.5c11.9 0 20.7 1.8 26.5 5.3s8.6 9 8.6 16.5c0 4.9-1.3 9.1-3.8 12.6s-5.8 5.7-9.9 6.7v.6c5.4 1.4 9.4 3.8 11.8 7.2s3.6 7.7 3.6 13c0 7.9-3 14.2-8.9 18.8-6 4.6-14.1 6.9-24.4 6.9h-34v-87.6zm23.7 33.5h7.1c3.4 0 6-.7 7.9-2.1s2.8-3.5 2.8-6.2c0-4.9-3.7-7.4-11.1-7.4h-6.6V276zm0 17.3v18.4h8.3c7.4 0 11.1-3.1 11.1-9.3 0-2.9-1-5.1-3-6.7s-4.8-2.3-8.6-2.3h-7.8z" enable-background="new" fill="#edb500"/><linearGradient id="G" gradientUnits="userSpaceOnUse" x1="236.2" y1="184.292" x2="236.2" y2="2.492"><stop offset="0" stop-color="#be4c08"/><stop offset=".339" stop-color="#f3903f"/><stop offset="1" stop-color="#fdc70c"/></linearGradient><circle cx="236.2" cy="93.4" r="90.9" fill="url(#G)" stroke="#ffbc4c" stroke-width="2.618"/><linearGradient id="H" gradientUnits="userSpaceOnUse" x1="165.641" y1="90.792" x2="306.759" y2="90.792"><stop offset="0" stop-color="#fff33b"/><stop offset=".035" stop-color="#fee72e"/><stop offset=".101" stop-color="#fed51b"/><stop offset=".17" stop-color="#fdca10"/><stop offset=".243" stop-color="#fdc70c"/><stop offset=".625" stop-color="#f3903f"/><stop offset=".888" stop-color="#ed683c"/><stop offset="1" stop-color="#e93e3a"/></linearGradient><circle cx="236.2" cy="90.8" r="70.3" fill="#be4c08" stroke="url(#H)" stroke-width=".518"/><linearGradient id="I" gradientUnits="userSpaceOnUse" x1="236.2" y1="23.392" x2="236.2" y2="161.392"><stop offset="0" stop-color="#174288"/><stop offset="1" stop-color="#2e8bcf"/></linearGradient><circle cx="236.2" cy="92.4" r="69" fill="url(#I)"/><circle cx="236.2" cy="93.4" r="68" fill="#3ea8dd"/><image width="78" height="128" transform="matrix(.9908 0 0 .9908 197.2405 34.1619)" overflow="visible" opacity="0"/><path d="M258 94.8c-1.1 19.3-6.2 36.4-15.9 52-1.1 1.8-2.6 3.4-4.1 4.9-2.1 2-4 1.9-6.1-.1-3.4-3.1-5.7-7.1-7.8-11.1-6.7-13.3-10.9-27.3-12-42.2-.4-5.4.1-10.8 1.9-16 3-8.9 9.8-13.9 19.2-14.3 4-.2 8 .2 11.7 1.8 6.6 2.8 10.1 8.1 11.7 14.7.8 3.7 1 7.5 1.4 10.3zm-33.8-.6c.1.7.1 1.8.4 2.9 1.1 4.1 3.6 7.1 7.7 8.1 3.7 1 7.1 0 9.9-2.8 4-4.1 4.5-11 1.2-15.7-3.3-4.8-9.2-6.1-14.1-3-3.4 2.4-4.9 5.9-5.1 10.5zm11.3-30.3c2.9-3.2 5.4-6.3 8.3-9.1 2.8-2.8 5.9-5.2 9.1-8-3.8 1.9-7.1 4.1-9.9 6.9s-5.3 5.9-8.2 9.1c-3.7-5.1-8-9.9-13.9-12.8 5.1 3.9 9.6 8.4 13.4 13.6-.1.2-.1.4-.2.6-1.9.1-3.7.4-5.6.3-6.2-.4-11.3-3.2-15.6-7.5-4-4-6.9-8.7-8.3-14.3-.3-1-.3-1.8 1.1-1.9 10.9-.2 19.9 3.4 26.4 12.5.7 1 1.2 2.1 1.6 3.1s.7 2.1 1.2 3.5c1-4.5 2.8-8.3 5.6-11.5 6.4-7.2 14.5-10.7 23.9-11.7 1.7-.2 3.4 0 5-.1 1.7-.1 1.8.8 1.4 2.1-1.5 5.8-4.4 10.8-8.3 15.3-4.7 5.3-10.4 9.1-17.5 10.4-2.9.8-6.9.6-9.5-.5z" fill="#fff"/></svg>
