<svg id="Layer_1" data-name="Layer 1" xmlns="http://www.w3.org/2000/svg" viewBox="0 0 1000 1000"><defs></defs><circle fill="#2f2f2f" cx="500" cy="500" r="350.96"/><path fill="#fff" d="M235.51,534.42a34.21,34.21,0,0,1-13-12.72,37.54,37.54,0,0,1,0-36.7,34.21,34.21,0,0,1,13-12.72,37.56,37.56,0,0,1,35.95,0A34,34,0,0,1,284.33,485a38,38,0,0,1,0,36.7,33.94,33.94,0,0,1-12.92,12.72,37.46,37.46,0,0,1-35.9,0Zm29-10.72a19.58,19.58,0,0,0,7.48-8.13,26.75,26.75,0,0,0,2.69-12.27A26.45,26.45,0,0,0,272,491.08a19.32,19.32,0,0,0-7.48-8,21.57,21.57,0,0,0-11.07-2.79,21.84,21.84,0,0,0-11.12,2.79,19.12,19.12,0,0,0-7.53,8,26.33,26.33,0,0,0-2.69,12.22,26.62,26.62,0,0,0,2.69,12.27,19.37,19.37,0,0,0,7.53,8.13,21.57,21.57,0,0,0,11.12,2.84A21.31,21.31,0,0,0,264.53,523.7Z"/><path fill="#fff" d="M347.87,483.05v55.26H333.81v-7a18.33,18.33,0,0,1-7,5.64,21.84,21.84,0,0,1-9.42,2,23.36,23.36,0,0,1-11.47-2.74,19.27,19.27,0,0,1-7.83-8.08,26.59,26.59,0,0,1-2.84-12.71V483.05h14v30.42q0,6.59,3.29,10.13a11.66,11.66,0,0,0,9,3.54q5.78,0,9.07-3.54t3.29-10.13V483.05Z"/><path fill="#fff" d="M373.54,494.52v26.73a5.28,5.28,0,0,0,1.35,4c.9.83,2.41,1.25,4.54,1.25h6.48v11.77h-8.78q-17.64,0-17.65-17.16V494.52H352.9V483.05h6.58V469.39h14.06v13.66h12.37v11.47Z"/><path fill="#fff" d="M424.9,535.66a25.54,25.54,0,0,1-10-10,30,30,0,0,1-3.64-15,29.43,29.43,0,0,1,3.74-15,26,26,0,0,1,10.22-10,31.3,31.3,0,0,1,28.92,0,26,26,0,0,1,10.23,10,29.43,29.43,0,0,1,3.74,15,28.79,28.79,0,0,1-3.84,15,26.62,26.62,0,0,1-10.37,10,30.2,30.2,0,0,1-14.62,3.54A29.11,29.11,0,0,1,424.9,535.66Zm21.5-10.47a13.43,13.43,0,0,0,5.33-5.53,18.65,18.65,0,0,0,2-9q0-7.87-4.14-12.12a13.64,13.64,0,0,0-10.13-4.24,13.31,13.31,0,0,0-10,4.24q-4,4.24-4,12.12t3.94,12.12a13,13,0,0,0,9.92,4.24A14.56,14.56,0,0,0,446.4,525.19Z"/><path fill="#fff" d="M499.11,494.52h-9.67v43.79H475.28V494.52H469V483.05h6.29v-2.79q0-10.17,5.78-15t17.45-4.49v11.77c-3.39-.06-5.75.5-7.08,1.7s-2,3.36-2,6.48v2.29h9.67Z"/><path fill="#fff" d="M537.86,536.51a21.48,21.48,0,0,1-9.23-7.18,18.91,18.91,0,0,1-3.49-11.07h15a9.66,9.66,0,0,0,3,6.78,10.79,10.79,0,0,0,7.53,2.49q4.89,0,7.68-2.34a7.61,7.61,0,0,0,2.79-6.13,7.11,7.11,0,0,0-1.89-5.09,13.24,13.24,0,0,0-4.74-3.14,78.63,78.63,0,0,0-7.83-2.54,85.12,85.12,0,0,1-11-3.94,19.3,19.3,0,0,1-7.28-5.89q-3-3.93-3-10.52a18.83,18.83,0,0,1,3.09-10.77,19.63,19.63,0,0,1,8.68-7,31.53,31.53,0,0,1,12.76-2.44q10.77,0,17.51,5.23t7.43,14.61H559.45a8,8,0,0,0-3-5.93,11.5,11.5,0,0,0-7.53-2.35,9.69,9.69,0,0,0-6.54,2.1,7.55,7.55,0,0,0-2.44,6.08,6.26,6.26,0,0,0,1.85,4.64,13.84,13.84,0,0,0,4.58,3,79.91,79.91,0,0,0,7.73,2.64,84.09,84.09,0,0,1,11.07,4,20,20,0,0,1,7.38,6q3.09,4,3.09,10.47a19.68,19.68,0,0,1-2.89,10.37,20.37,20.37,0,0,1-8.48,7.63A28.82,28.82,0,0,1,551,539,33.09,33.09,0,0,1,537.86,536.51Z"/><path fill="#fff" d="M598.88,494.52v26.73a5.28,5.28,0,0,0,1.35,4c.89.83,2.41,1.25,4.54,1.25h6.48v11.77h-8.78q-17.65,0-17.65-17.16V494.52h-6.58V483.05h6.58V469.39h14.06v13.66h12.37v11.47Z"/><path fill="#fff" d="M626.57,535.66a25.5,25.5,0,0,1-10-10,30,30,0,0,1-3.64-15,29.43,29.43,0,0,1,3.74-15,26,26,0,0,1,10.22-10,31.32,31.32,0,0,1,28.93,0,26,26,0,0,1,10.22,10,29.43,29.43,0,0,1,3.74,15,28.79,28.79,0,0,1-3.84,15,26.62,26.62,0,0,1-10.37,10,30.19,30.19,0,0,1-14.61,3.54A29.08,29.08,0,0,1,626.57,535.66Zm21.49-10.47a13.37,13.37,0,0,0,5.33-5.53,18.65,18.65,0,0,0,2-9q0-7.87-4.14-12.12a13.62,13.62,0,0,0-10.12-4.24,13.33,13.33,0,0,0-10,4.24q-4,4.24-4,12.12T631,522.8a13,13,0,0,0,9.93,4.24A14.55,14.55,0,0,0,648.06,525.19Z"/><path fill="#fff" d="M675.87,495.67a25,25,0,0,1,9.67-10,28,28,0,0,1,14.17-3.54q10.26,0,17,5.13a25,25,0,0,1,9,14.41H710.68a11,11,0,0,0-4-5.63,11.76,11.76,0,0,0-7-2.05,11.54,11.54,0,0,0-9.48,4.34q-3.5,4.35-3.49,12.32t3.49,12.22a11.54,11.54,0,0,0,9.48,4.34q8.48,0,11.07-7.58h15.06a25.53,25.53,0,0,1-9.08,14.26q-6.78,5.28-16.95,5.28a28,28,0,0,1-14.17-3.54,25,25,0,0,1-9.67-10,34,34,0,0,1,0-30Z"/><path fill="#fff" d="M764.09,538.31l-18.75-23.54v23.54h-14V464.5h14v42l18.55-23.44H782l-24.33,27.73,24.54,27.53Z"/></svg>